<svg t="1707808898791" class="icon" viewBox="0 0 1024 1024" version="1.1" xmlns="http://www.w3.org/2000/svg" p-id="1707" width="200" height="200"><path d="M793.6 450.56H460.8c-10.24 0-25.6 15.36-25.6 25.6v66.56c0 15.36 15.36 25.6 25.6 25.6h209.92c15.36 0 25.6 15.36 25.6 25.6v20.48c0 46.08-40.96 81.92-81.92 81.92H348.16c-15.36 0-25.6-15.36-25.6-25.6V399.36c-5.12-40.96 35.84-81.92 76.8-81.92h389.12c10.24 0 25.6-15.36 25.6-25.6V230.4c5.12-10.24-10.24-25.6-20.48-25.6h-384c-112.64 0-204.8 92.16-204.8 204.8v384c0 10.24 15.36 25.6 25.6 25.6h404.48c102.4 0 184.32-81.92 184.32-184.32V476.16c0-10.24-15.36-25.6-25.6-25.6z" fill="#D81E06" p-id="1708"></path></svg>